<svg id="Layer_1" data-name="Layer 1" xmlns="http://www.w3.org/2000/svg" viewBox="0 0 120 30"><defs><style>.cls-1{fill:#74c0fc;}.cls-2{fill:#fff;}.cls-3{fill:#343a40;}</style></defs><title>car-finder-logo-bg-dark</title><path class="cls-1" d="M35.18,15.13A46.92,46.92,0,0,1,5.46,29.68l-4-19A33.43,33.43,0,0,0,22.6.32Z"/><path class="cls-2" d="M43.83,22.9A6.62,6.62,0,0,1,40.35,22a5.83,5.83,0,0,1-2.25-2.46,8.15,8.15,0,0,1-.79-3.66,8.16,8.16,0,0,1,.79-3.67,5.83,5.83,0,0,1,2.25-2.46,6.62,6.62,0,0,1,3.48-.88A6.38,6.38,0,0,1,47.72,10a6.1,6.1,0,0,1,2.22,3.11l-2.56.71a3.42,3.42,0,0,0-3.55-2.58,3.76,3.76,0,0,0-2.13.57,3.52,3.52,0,0,0-1.29,1.61A6.45,6.45,0,0,0,40,15.9a6.43,6.43,0,0,0,.43,2.43,3.52,3.52,0,0,0,1.29,1.61,3.76,3.76,0,0,0,2.13.57,3.67,3.67,0,0,0,2.29-.68,3.72,3.72,0,0,0,1.26-1.9l2.56.71a6.1,6.1,0,0,1-2.22,3.11A6.38,6.38,0,0,1,43.83,22.9Z"/><path class="cls-2" d="M54.42,22.9a3.7,3.7,0,0,1-1.83-.42,2.66,2.66,0,0,1-1.14-1.11,3.06,3.06,0,0,1-.39-1.53,3.7,3.7,0,0,1,.21-1.28,2.74,2.74,0,0,1,.7-1,4,4,0,0,1,1.29-.74,8.54,8.54,0,0,1,1.34-.36c.51-.11,1.1-.21,1.75-.31l2.16-.32-.92.51A1.8,1.8,0,0,0,57.17,15a2,2,0,0,0-1.44-.42,2.84,2.84,0,0,0-1.17.27,1.57,1.57,0,0,0-.85,1l-2.3-.73a3.94,3.94,0,0,1,1.44-2,4.69,4.69,0,0,1,2.88-.79,6.47,6.47,0,0,1,2.37.41,3,3,0,0,1,1.57,1.42A2.91,2.91,0,0,1,60,15.2a12,12,0,0,1,.06,1.26v6.16H57.86V20.55l.31.42a4.87,4.87,0,0,1-1.59,1.48A4.61,4.61,0,0,1,54.42,22.9Zm.54-2a2.48,2.48,0,0,0,1.18-.25,2.63,2.63,0,0,0,1.16-1.09,2.6,2.6,0,0,0,.22-1c0-.37,0-.67,0-.91l.74.18-1.83.32c-.46.08-.84.16-1.13.23a5.64,5.64,0,0,0-.75.22A2.75,2.75,0,0,0,54,19a1.09,1.09,0,0,0-.34.38,1,1,0,0,0-.11.46,1,1,0,0,0,.18.59,1,1,0,0,0,.49.38A1.9,1.9,0,0,0,55,20.9Z"/><path class="cls-2" d="M62.13,22.62V12.53h2.24V15l-.24-.32a3.79,3.79,0,0,1,.52-.95,2.77,2.77,0,0,1,.81-.71,3,3,0,0,1,.79-.35,3.78,3.78,0,0,1,.89-.16,5.53,5.53,0,0,1,.91,0v2.38a2.49,2.49,0,0,0-1-.09,2.73,2.73,0,0,0-1,.25,2.21,2.21,0,0,0-.75.55,2.29,2.29,0,0,0-.47.8,3.11,3.11,0,0,0-.16,1v5.16Z"/><path class="cls-1" d="M69.45,22.62V9.17H77.3v1.66H71.12v4.23h5.06v1.67H71.12v5.89Z"/><path class="cls-1" d="M78.42,10.75V9h1.66v1.72Zm0,11.87V12.53h1.66V22.62Z"/><path class="cls-1" d="M82.12,22.62V12.53h1.5v2.7h.18v7.39Zm7.19,0V17.57a7.9,7.9,0,0,0-.12-1.39A3.85,3.85,0,0,0,88.75,15a2.3,2.3,0,0,0-.84-.83,2.57,2.57,0,0,0-1.33-.31,3,3,0,0,0-1.14.21,2.19,2.19,0,0,0-.87.64A3.07,3.07,0,0,0,84,15.78a4.94,4.94,0,0,0-.21,1.52L82.71,17a5.58,5.58,0,0,1,.53-2.52,3.79,3.79,0,0,1,1.48-1.61A4.34,4.34,0,0,1,87,12.27a4,4,0,0,1,1.67.31,3.48,3.48,0,0,1,1.15.82,4.23,4.23,0,0,1,.72,1.14,5.84,5.84,0,0,1,.37,1.28A7.61,7.61,0,0,1,91,17v5.58Z"/><path class="cls-1" d="M96.54,22.9a4.14,4.14,0,0,1-2.42-.71,4.52,4.52,0,0,1-1.55-1.91A6.4,6.4,0,0,1,92,17.57a6.42,6.42,0,0,1,.55-2.72A4.49,4.49,0,0,1,94.12,13a4.2,4.2,0,0,1,2.41-.7,4,4,0,0,1,2.4.69,4.26,4.26,0,0,1,1.47,1.9,6.92,6.92,0,0,1,.5,2.73,6.92,6.92,0,0,1-.5,2.71,4.28,4.28,0,0,1-1.47,1.91A4,4,0,0,1,96.54,22.9Zm.21-1.52a2.76,2.76,0,0,0,1.67-.49,2.93,2.93,0,0,0,1-1.36,6.41,6.41,0,0,0,0-3.94,2.82,2.82,0,0,0-1-1.33,3.07,3.07,0,0,0-3.33,0,2.92,2.92,0,0,0-1,1.36,5.39,5.39,0,0,0-.32,1.93,5.58,5.58,0,0,0,.32,1.93,3,3,0,0,0,1,1.37A2.62,2.62,0,0,0,96.75,21.38Zm3,1.24V15.19h-.19v-6h1.67V22.62Z"/><path class="cls-1" d="M107.42,22.9a5,5,0,0,1-2.59-.66,4.49,4.49,0,0,1-1.72-1.84,5.91,5.91,0,0,1-.62-2.76,6.25,6.25,0,0,1,.61-2.86,4.45,4.45,0,0,1,1.69-1.87,4.85,4.85,0,0,1,2.56-.66,4.71,4.71,0,0,1,2.59.7,4.32,4.32,0,0,1,1.6,2A7.4,7.4,0,0,1,112,18h-1.69v-.59a4.52,4.52,0,0,0-.75-2.78,2.59,2.59,0,0,0-2.17-.92,2.82,2.82,0,0,0-2.34,1,4.37,4.37,0,0,0-.81,2.84,4.22,4.22,0,0,0,.81,2.76,2.8,2.8,0,0,0,2.29,1,3.17,3.17,0,0,0,1.73-.46,3.1,3.1,0,0,0,1.16-1.31l1.6.55a4.55,4.55,0,0,1-1.77,2.07A5,5,0,0,1,107.42,22.9ZM103.69,18V16.71h7.46V18Z"/><path class="cls-1" d="M113.33,22.62V12.53h1.49V15l-.25-.32a4,4,0,0,1,.46-.86,2.81,2.81,0,0,1,.65-.64,3,3,0,0,1,.88-.49,4.41,4.41,0,0,1,1-.2,3.75,3.75,0,0,1,1,.07v1.56a3.09,3.09,0,0,0-1.15-.07,2.21,2.21,0,0,0-1.15.46,2.43,2.43,0,0,0-.76.84,3.76,3.76,0,0,0-.37,1.07,7.49,7.49,0,0,0-.1,1.17v5.06Z"/><path class="cls-3" d="M31.27,16.76A3.22,3.22,0,0,0,28.94,15l-.3-.08s-.81-.2-1.85-.41A27.85,27.85,0,0,0,23.86,14l-.13-.1s-.15-.49-.36-.59a.72.72,0,0,0-.44-.06,1.36,1.36,0,0,1-.17-.17,5.79,5.79,0,0,0-.55-.43,9.4,9.4,0,0,0-1.7-.93,13.86,13.86,0,0,0-1.8-.55h0L18.08,11l-.44-.08h-.06l-.21,0h-.12a23.28,23.28,0,0,0-3.17-.26l-.87,0-.47,0a13.67,13.67,0,0,0-4,.85,4.3,4.3,0,0,0-1.51.94,3.17,3.17,0,0,0-.42.56l-.17.25c-.22.34-.44.76-.6,1l-.1.19s-.14.33-.29.77a2.53,2.53,0,0,0-.16.58.44.44,0,0,0,0,.1s0,0,0,0v.06a2,2,0,0,0,0,.52v0a5.9,5.9,0,0,0,0,1,1.93,1.93,0,0,1,.65-.84A1.72,1.72,0,0,1,8,16.6a2.48,2.48,0,0,1,.9,1,2.86,2.86,0,0,1,.2,1.88l1.76.41,4,.92a3.68,3.68,0,0,1,0-.58c0-2.12,1.26-3.72,2.93-3.72A3.56,3.56,0,0,1,21,20.23a4.33,4.33,0,0,1-.79,2.56,7.84,7.84,0,0,0,.72-.38,4.09,4.09,0,0,0,.3-.33l.77,0c1.51-.06,3-.14,4.53-.3l1.23-.12A11,11,0,0,0,30.9,21a1.87,1.87,0,0,0,.46-.36.43.43,0,0,0,.15-.25c0-.06,0-.21,0-.39A10.33,10.33,0,0,0,31.27,16.76ZM9.76,14A24.89,24.89,0,0,0,6.37,14s.07-.11.08-.12l.22-.35a4.67,4.67,0,0,1,1.75-1.64,4.83,4.83,0,0,1,1.78-.53,3.86,3.86,0,0,1,1.82.13,2.78,2.78,0,0,1,1.3,1.34,3.17,3.17,0,0,1,.21.41c.08.16.14.32.2.46a4.81,4.81,0,0,1,.17.56C13.53,14.19,12,14.13,9.76,14Zm5.63.14a9.57,9.57,0,0,0-1.49-2.85,3.17,3.17,0,0,1,.41-.05l.43,0a17.19,17.19,0,0,1,4.63.53c.27.07.55.15.82.24l.18.05a9.42,9.42,0,0,1,2.29,1.14,8.79,8.79,0,0,1,1,.84S17,13.8,15.39,14.09Z"/><path class="cls-3" d="M18,22.83a2.7,2.7,0,0,0,2.4-3,2.89,2.89,0,0,0-2.7-2.9c-1.33,0-2.33,1.25-2.33,2.91A2.88,2.88,0,0,0,18,22.83Zm-2.25-3c0-1.12.66-2,1.48-2s1.49.91,1.49,2-.67,2-1.49,2S15.73,21,15.73,19.85Z"/><path class="cls-3" d="M7.84,16.93A1.59,1.59,0,0,0,7,16.66a1.19,1.19,0,0,0-.64.19,1.45,1.45,0,0,0-.64,1,2.08,2.08,0,0,0,.46,1.66,1.56,1.56,0,0,0,2,.28A1.84,1.84,0,0,0,7.84,16.93Zm-.75,2.78c-.47.06-.94-.45-1.06-1.15s.17-1.3.65-1.37,1,.45,1.06,1.15S7.57,19.64,7.09,19.71Z"/></svg>