<?xml version="1.0" encoding="utf-8"?>
<!-- Generator: Adobe Illustrator 23.0.1, SVG Export Plug-In . SVG Version: 6.00 Build 0)  -->
<svg version="1.1" id="Layer_1" xmlns="http://www.w3.org/2000/svg" xmlns:xlink="http://www.w3.org/1999/xlink" x="0px" y="0px"
	 viewBox="0 0 120 30" style="enable-background:new 0 0 120 30;" xml:space="preserve">
<style type="text/css">
	.st0{fill:none;stroke:#74C0FC;stroke-width:3.5098;stroke-miterlimit:10;}
	.st1{fill:none;}
	.st2{fill:#343A40;}
	.st3{fill:none;stroke:#343A40;stroke-width:0;stroke-linecap:round;stroke-linejoin:round;}
	.st4{fill:#FFFFFF;}
	.st5{fill:#74C0FC;}
</style>
<g>
	<path class="st5" d="M35.18,15.13c-7.92,8.35-18.27,13.42-29.72,14.56C4.13,23.34,2.8,17,1.47,10.67
		C9.61,9.86,16.97,6.25,22.6,0.32C26.79,5.25,30.98,10.19,35.18,15.13z"/>
	<g>
		<path class="st2" d="M43.83,22.9c-1.34,0-2.5-0.29-3.48-0.88c-0.97-0.58-1.72-1.4-2.25-2.46c-0.53-1.05-0.79-2.28-0.79-3.67
			c0-1.39,0.26-2.62,0.79-3.67c0.53-1.05,1.28-1.87,2.25-2.46c0.97-0.58,2.13-0.88,3.48-0.88c1.54,0,2.84,0.38,3.89,1.15
			c1.05,0.77,1.79,1.8,2.22,3.11l-2.56,0.71c-0.25-0.82-0.67-1.45-1.26-1.9s-1.35-0.68-2.29-0.68c-0.85,0-1.56,0.19-2.13,0.57
			c-0.57,0.38-1,0.92-1.28,1.61c-0.29,0.69-0.43,1.5-0.43,2.44c0,0.93,0.14,1.75,0.43,2.44c0.29,0.69,0.71,1.23,1.28,1.61
			c0.57,0.38,1.28,0.57,2.13,0.57c0.93,0,1.7-0.23,2.29-0.68c0.59-0.45,1.01-1.09,1.26-1.9l2.56,0.71
			c-0.43,1.31-1.17,2.34-2.22,3.11C46.67,22.52,45.38,22.9,43.83,22.9z"/>
		<path class="st2" d="M54.42,22.9c-0.72,0-1.33-0.14-1.83-0.42c-0.5-0.28-0.88-0.65-1.14-1.11c-0.26-0.46-0.39-0.98-0.39-1.54
			c0-0.47,0.07-0.89,0.22-1.28c0.14-0.39,0.37-0.73,0.7-1.02c0.32-0.3,0.75-0.54,1.29-0.74c0.37-0.14,0.82-0.26,1.34-0.36
			c0.52-0.11,1.1-0.21,1.76-0.3c0.65-0.1,1.37-0.2,2.16-0.32l-0.92,0.5c0-0.6-0.14-1.04-0.43-1.32c-0.29-0.28-0.77-0.42-1.44-0.42
			c-0.37,0-0.76,0.09-1.17,0.27c-0.4,0.18-0.69,0.5-0.85,0.96l-2.3-0.73c0.25-0.83,0.73-1.51,1.44-2.04
			c0.7-0.52,1.66-0.78,2.88-0.78c0.89,0,1.68,0.14,2.37,0.41c0.69,0.27,1.21,0.75,1.57,1.42c0.2,0.37,0.32,0.75,0.35,1.12
			c0.04,0.37,0.06,0.79,0.06,1.25v6.16h-2.22v-2.07l0.32,0.43c-0.49,0.68-1.02,1.17-1.59,1.47C56.01,22.75,55.29,22.9,54.42,22.9z
			 M54.96,20.9c0.47,0,0.86-0.08,1.18-0.25c0.32-0.16,0.58-0.35,0.77-0.56c0.19-0.21,0.32-0.39,0.39-0.53
			c0.13-0.27,0.21-0.59,0.23-0.96c0.02-0.36,0.03-0.67,0.03-0.91l0.75,0.19c-0.75,0.12-1.36,0.23-1.83,0.31
			c-0.47,0.08-0.84,0.16-1.13,0.23c-0.29,0.07-0.54,0.14-0.76,0.22c-0.25,0.1-0.45,0.21-0.6,0.32c-0.15,0.12-0.26,0.24-0.34,0.38
			c-0.07,0.14-0.11,0.29-0.11,0.46c0,0.23,0.06,0.43,0.17,0.59c0.11,0.17,0.28,0.29,0.49,0.38C54.42,20.86,54.67,20.9,54.96,20.9z"
			/>
		<path class="st2" d="M62.13,22.62V12.53h2.24V15l-0.24-0.32c0.13-0.35,0.31-0.67,0.52-0.95c0.22-0.29,0.49-0.52,0.8-0.71
			c0.24-0.15,0.51-0.27,0.79-0.35c0.29-0.08,0.58-0.14,0.89-0.16c0.3-0.02,0.61-0.01,0.91,0.02v2.37c-0.28-0.09-0.61-0.12-0.98-0.09
			c-0.37,0.03-0.7,0.11-1,0.26c-0.3,0.14-0.55,0.32-0.76,0.55c-0.21,0.23-0.36,0.5-0.47,0.8c-0.11,0.31-0.16,0.66-0.16,1.04v5.15
			H62.13z"/>
		<path class="st5" d="M69.45,22.62V9.17h7.84v1.66h-6.18v4.23h5.06v1.66h-5.06v5.89H69.45z"/>
		<path class="st5" d="M78.42,10.75V9.03h1.66v1.72H78.42z M78.42,22.62V12.53h1.66v10.08H78.42z"/>
		<path class="st5" d="M82.12,22.62V12.53h1.49v2.7h0.19v7.39H82.12z M89.31,22.62v-5.05c0-0.48-0.04-0.94-0.13-1.38
			c-0.08-0.44-0.23-0.84-0.44-1.19c-0.21-0.35-0.49-0.63-0.84-0.84c-0.35-0.21-0.8-0.31-1.33-0.31c-0.42,0-0.8,0.07-1.13,0.21
			c-0.34,0.14-0.63,0.35-0.87,0.64c-0.24,0.29-0.43,0.65-0.56,1.08c-0.13,0.43-0.2,0.94-0.2,1.53l-1.09-0.34
			c0-0.98,0.18-1.82,0.53-2.52c0.35-0.7,0.85-1.24,1.48-1.62c0.64-0.38,1.39-0.57,2.25-0.57c0.65,0,1.21,0.1,1.67,0.31
			c0.46,0.21,0.84,0.48,1.15,0.82c0.3,0.34,0.54,0.72,0.72,1.14c0.17,0.42,0.3,0.85,0.37,1.28c0.07,0.43,0.11,0.84,0.11,1.23v5.57
			H89.31z"/>
		<path class="st5" d="M96.54,22.9c-0.94,0-1.75-0.24-2.42-0.7c-0.67-0.47-1.19-1.11-1.55-1.91c-0.36-0.8-0.55-1.71-0.55-2.72
			s0.18-1.91,0.55-2.72c0.36-0.8,0.88-1.44,1.55-1.9s1.48-0.7,2.41-0.7c0.95,0,1.75,0.23,2.4,0.69c0.65,0.46,1.14,1.09,1.47,1.9
			c0.33,0.8,0.5,1.71,0.5,2.73c0,1-0.17,1.91-0.5,2.71s-0.82,1.44-1.47,1.91C98.28,22.66,97.49,22.9,96.54,22.9z M96.75,21.38
			c0.68,0,1.24-0.16,1.67-0.49c0.44-0.33,0.76-0.78,0.97-1.35c0.21-0.58,0.31-1.23,0.31-1.97c0-0.75-0.1-1.41-0.31-1.97
			c-0.21-0.57-0.53-1.01-0.96-1.34c-0.43-0.32-0.97-0.48-1.63-0.48c-0.68,0-1.25,0.17-1.69,0.5c-0.45,0.34-0.78,0.79-0.99,1.36
			c-0.21,0.57-0.32,1.21-0.32,1.92c0,0.72,0.11,1.36,0.33,1.94c0.22,0.58,0.55,1.03,0.99,1.37C95.54,21.21,96.09,21.38,96.75,21.38z
			 M99.7,22.62v-7.42h-0.19V9.17h1.67v13.45H99.7z"/>
		<path class="st5" d="M107.42,22.9c-0.99,0-1.85-0.22-2.59-0.66c-0.74-0.44-1.31-1.05-1.72-1.84c-0.41-0.79-0.62-1.71-0.62-2.76
			c0-1.1,0.2-2.06,0.61-2.86s0.97-1.43,1.69-1.87c0.73-0.44,1.58-0.66,2.55-0.66c1.01,0,1.88,0.23,2.59,0.7s1.25,1.13,1.61,2
			c0.36,0.87,0.51,1.9,0.46,3.09h-1.68v-0.6c-0.02-1.24-0.27-2.16-0.76-2.78c-0.49-0.61-1.21-0.92-2.17-0.92
			c-1.03,0-1.81,0.33-2.34,0.99c-0.54,0.66-0.8,1.61-0.8,2.84c0,1.19,0.27,2.11,0.8,2.76c0.54,0.65,1.3,0.98,2.29,0.98
			c0.67,0,1.25-0.15,1.74-0.46c0.49-0.31,0.88-0.74,1.16-1.32l1.6,0.55c-0.39,0.89-0.98,1.58-1.77,2.07
			C109.28,22.65,108.4,22.9,107.42,22.9z M103.69,18.04v-1.33h7.45v1.33H103.69z"/>
		<path class="st5" d="M113.33,22.62V12.53h1.48v2.44l-0.24-0.32c0.12-0.31,0.27-0.6,0.46-0.86c0.19-0.26,0.4-0.48,0.64-0.64
			c0.26-0.21,0.56-0.37,0.89-0.49c0.33-0.11,0.67-0.18,1.01-0.2c0.34-0.02,0.66,0,0.96,0.07v1.56c-0.35-0.09-0.73-0.12-1.15-0.07
			c-0.42,0.04-0.8,0.2-1.16,0.46c-0.32,0.23-0.57,0.51-0.75,0.84c-0.18,0.33-0.3,0.69-0.37,1.07c-0.07,0.38-0.1,0.77-0.1,1.17v5.06
			H113.33z"/>
	</g>
	<path class="st2" d="M31.27,16.76c-0.35-1-1.36-1.52-2.33-1.8c-0.1-0.03-0.2-0.06-0.3-0.08c0,0-0.81-0.19-1.85-0.41
		c-0.96-0.21-2.1-0.43-2.93-0.51c-0.13-0.1-0.13-0.1-0.13-0.1s-0.16-0.48-0.37-0.59c-0.21-0.11-0.43-0.06-0.43-0.06
		c-0.02,0-0.15-0.15-0.17-0.16c-0.17-0.16-0.36-0.3-0.55-0.44c-0.46-0.33-1.31-0.79-1.7-0.93c-0.59-0.22-1.19-0.41-1.8-0.55
		c-0.01,0-0.03-0.01-0.04-0.01c-0.2-0.05-0.39-0.09-0.59-0.13c-0.14-0.03-0.28-0.06-0.44-0.08c-0.02,0-0.04-0.01-0.06-0.01
		c-0.07-0.01-0.14-0.03-0.21-0.04c0,0-0.04-0.01-0.12-0.01c-1.12-0.17-2.22-0.24-3.16-0.25c-0.3-0.01-0.6-0.02-0.88-0.02
		c-0.14,0-0.3,0.01-0.47,0.02c-1.13,0.07-2.74,0.35-3.98,0.86c-0.63,0.26-1.18,0.57-1.52,0.94c0,0-0.09,0.08-0.42,0.56
		c-0.05,0.07-0.1,0.16-0.17,0.25c-0.22,0.34-0.45,0.75-0.6,1.04c-0.04,0.08-0.08,0.14-0.1,0.19c0,0-0.14,0.33-0.29,0.77
		c-0.07,0.15-0.12,0.36-0.16,0.58c-0.01,0.03-0.01,0.07-0.02,0.1c0-0.03-0.01-0.05-0.01-0.04c0,0,0,0.03,0.01,0.07
		c-0.04,0.19-0.06,0.37-0.05,0.52c0,0.01,0,0.01,0,0.02c-0.03,0.29-0.01,0.65,0.02,1.01c0.15-0.34,0.36-0.63,0.65-0.84
		c0.56-0.4,1.28-0.41,1.91-0.02c0.38,0.23,0.71,0.6,0.9,1c0.26,0.54,0.37,1.24,0.2,1.88l1.76,0.41l3.97,0.92
		c-0.03-0.19-0.05-0.38-0.05-0.57c0-2.12,1.26-3.72,2.94-3.72c1.78,0,3.28,1.7,3.28,3.71c0,1-0.3,1.89-0.79,2.56
		c0.41-0.19,0.72-0.38,0.72-0.38c0.12-0.12,0.22-0.23,0.3-0.33c0.22,0,0.48-0.01,0.77-0.02c1.51-0.05,3.02-0.14,4.53-0.29
		c0.4-0.04,0.81-0.08,1.24-0.12c1.07-0.11,2.18-0.25,3.13-0.64c0.08-0.03,0.31-0.2,0.46-0.36c0.08-0.09,0.15-0.18,0.14-0.25
		c0.01-0.06,0.03-0.2,0.04-0.39C31.6,19.34,31.61,18.03,31.27,16.76z M9.76,13.95c-1.32-0.11-3.38,0.08-3.38,0.08
		c0.02,0,0.07-0.11,0.07-0.13c0.07-0.12,0.14-0.23,0.22-0.34c0.47-0.69,1.01-1.25,1.75-1.65c0.55-0.29,1.16-0.46,1.78-0.53
		c0.59-0.06,1.26-0.08,1.82,0.13c0.59,0.23,1,0.81,1.3,1.34c0.08,0.13,0.15,0.27,0.21,0.41c0.08,0.17,0.14,0.32,0.19,0.46
		c0.12,0.33,0.18,0.56,0.18,0.56C13.53,14.19,12.01,14.13,9.76,13.95z M15.39,14.09c-0.4-0.87-0.6-1.83-1.48-2.85
		c0.25-0.05,0.36-0.05,0.4-0.05c0.14-0.01,0.29-0.02,0.43-0.02c1.54-0.03,3.14,0.13,4.63,0.53c0.27,0.07,0.55,0.15,0.82,0.24
		c0.06,0.02,0.12,0.04,0.18,0.06c0.8,0.29,1.6,0.64,2.29,1.14c0.35,0.25,0.68,0.54,0.99,0.84C23.65,13.97,16.95,13.8,15.39,14.09z"
		/>
	<path class="st2" d="M17.98,22.83c1.35,0,2.4-1.3,2.4-2.96c0-1.54-1.26-2.9-2.7-2.9c-1.33,0-2.33,1.25-2.33,2.91
		C15.35,21.45,16.58,22.83,17.98,22.83z M15.73,19.85c0-1.12,0.67-2.03,1.49-2.03c0.82,0,1.49,0.91,1.49,2.03
		c0,1.12-0.67,2.03-1.49,2.03C16.39,21.88,15.73,20.97,15.73,19.85z"/>
	<path class="st2" d="M7.84,16.93c-0.25-0.16-0.54-0.27-0.85-0.27c-0.22,0-0.43,0.06-0.63,0.19c-0.44,0.28-0.6,0.71-0.65,1.01
		c-0.1,0.58,0.08,1.21,0.46,1.66c0.45,0.53,1.44,0.77,2.04,0.29C9.14,19.05,8.78,17.54,7.84,16.93z M7.09,19.71
		c-0.47,0.06-0.95-0.45-1.06-1.14c-0.12-0.69,0.17-1.31,0.65-1.37c0.47-0.06,0.95,0.45,1.06,1.14S7.57,19.64,7.09,19.71z"/>
</g>
</svg>
